<mxfile host="app.diagrams.net" modified="2020-05-05T03:28:34.251Z" agent="5.0 (Macintosh; Intel Mac OS X 10_13_6) AppleWebKit/537.36 (KHTML, like Gecko) Chrome/81.0.4044.129 Safari/537.36" etag="oEIMiklfFpo0I8cVKaVA" version="13.0.6" type="github">
  <diagram id="C5RBs43oDa-KdzZeNtuy" name="Page-1">
    <mxGraphModel dx="2013" dy="1860" grid="1" gridSize="10" guides="1" tooltips="1" connect="1" arrows="1" fold="1" page="1" pageScale="1" pageWidth="827" pageHeight="1169" math="0" shadow="0">
      <root>
        <mxCell id="WIyWlLk6GJQsqaUBKTNV-0" />
        <mxCell id="WIyWlLk6GJQsqaUBKTNV-1" parent="WIyWlLk6GJQsqaUBKTNV-0" />
        <mxCell id="Qaua3pq4yem5n6teV59A-20" style="edgeStyle=orthogonalEdgeStyle;rounded=0;orthogonalLoop=1;jettySize=auto;html=1;exitX=1;exitY=0.75;exitDx=0;exitDy=0;entryX=0;entryY=0.75;entryDx=0;entryDy=0;" parent="WIyWlLk6GJQsqaUBKTNV-1" source="Qaua3pq4yem5n6teV59A-9" target="Qaua3pq4yem5n6teV59A-10" edge="1">
          <mxGeometry relative="1" as="geometry" />
        </mxCell>
        <mxCell id="Qaua3pq4yem5n6teV59A-24" style="edgeStyle=orthogonalEdgeStyle;rounded=0;orthogonalLoop=1;jettySize=auto;html=1;exitX=0.25;exitY=0;exitDx=0;exitDy=0;entryX=0.167;entryY=0.983;entryDx=0;entryDy=0;entryPerimeter=0;" parent="WIyWlLk6GJQsqaUBKTNV-1" source="Qaua3pq4yem5n6teV59A-9" target="Qaua3pq4yem5n6teV59A-11" edge="1">
          <mxGeometry relative="1" as="geometry" />
        </mxCell>
        <mxCell id="Qaua3pq4yem5n6teV59A-9" value="&lt;font style=&quot;font-size: 18px&quot;&gt;headquarter&lt;br&gt;&lt;font color=&quot;#ff0080&quot;&gt;(Alice)&lt;/font&gt;&lt;br&gt;&lt;/font&gt;" style="rounded=1;whiteSpace=wrap;html=1;" parent="WIyWlLk6GJQsqaUBKTNV-1" vertex="1">
          <mxGeometry x="60" y="420" width="120" height="60" as="geometry" />
        </mxCell>
        <mxCell id="Qaua3pq4yem5n6teV59A-22" style="edgeStyle=orthogonalEdgeStyle;rounded=0;orthogonalLoop=1;jettySize=auto;html=1;entryX=1;entryY=0.5;entryDx=0;entryDy=0;" parent="WIyWlLk6GJQsqaUBKTNV-1" source="Qaua3pq4yem5n6teV59A-10" target="Qaua3pq4yem5n6teV59A-9" edge="1">
          <mxGeometry relative="1" as="geometry" />
        </mxCell>
        <mxCell id="Qaua3pq4yem5n6teV59A-32" style="edgeStyle=orthogonalEdgeStyle;rounded=0;orthogonalLoop=1;jettySize=auto;html=1;exitX=1;exitY=0.25;exitDx=0;exitDy=0;entryX=0;entryY=0.25;entryDx=0;entryDy=0;" parent="WIyWlLk6GJQsqaUBKTNV-1" source="Qaua3pq4yem5n6teV59A-10" target="Qaua3pq4yem5n6teV59A-17" edge="1">
          <mxGeometry relative="1" as="geometry" />
        </mxCell>
        <mxCell id="Qaua3pq4yem5n6teV59A-35" style="edgeStyle=orthogonalEdgeStyle;rounded=0;orthogonalLoop=1;jettySize=auto;html=1;entryX=0.5;entryY=0;entryDx=0;entryDy=0;" parent="WIyWlLk6GJQsqaUBKTNV-1" source="Qaua3pq4yem5n6teV59A-10" target="Qaua3pq4yem5n6teV59A-18" edge="1">
          <mxGeometry relative="1" as="geometry" />
        </mxCell>
        <mxCell id="Qaua3pq4yem5n6teV59A-10" value="&lt;font style=&quot;font-size: 18px&quot;&gt;umbrella company&lt;/font&gt;" style="rounded=1;whiteSpace=wrap;html=1;" parent="WIyWlLk6GJQsqaUBKTNV-1" vertex="1">
          <mxGeometry x="360" y="420" width="120" height="60" as="geometry" />
        </mxCell>
        <mxCell id="Qaua3pq4yem5n6teV59A-26" style="edgeStyle=orthogonalEdgeStyle;rounded=0;orthogonalLoop=1;jettySize=auto;html=1;exitX=0.75;exitY=1;exitDx=0;exitDy=0;entryX=0.833;entryY=0.017;entryDx=0;entryDy=0;entryPerimeter=0;" parent="WIyWlLk6GJQsqaUBKTNV-1" source="Qaua3pq4yem5n6teV59A-11" target="Qaua3pq4yem5n6teV59A-9" edge="1">
          <mxGeometry relative="1" as="geometry" />
        </mxCell>
        <mxCell id="Qaua3pq4yem5n6teV59A-43" value="" style="edgeStyle=orthogonalEdgeStyle;rounded=0;orthogonalLoop=1;jettySize=auto;html=1;" parent="WIyWlLk6GJQsqaUBKTNV-1" source="Qaua3pq4yem5n6teV59A-11" target="Qaua3pq4yem5n6teV59A-13" edge="1">
          <mxGeometry relative="1" as="geometry" />
        </mxCell>
        <mxCell id="Qaua3pq4yem5n6teV59A-47" style="edgeStyle=orthogonalEdgeStyle;rounded=0;orthogonalLoop=1;jettySize=auto;html=1;exitX=0.617;exitY=0;exitDx=0;exitDy=0;entryX=0.583;entryY=0;entryDx=0;entryDy=0;entryPerimeter=0;exitPerimeter=0;" parent="WIyWlLk6GJQsqaUBKTNV-1" source="Qaua3pq4yem5n6teV59A-11" target="Qaua3pq4yem5n6teV59A-12" edge="1">
          <mxGeometry relative="1" as="geometry">
            <Array as="points">
              <mxPoint x="144" y="210" />
              <mxPoint x="220" y="210" />
              <mxPoint x="220" y="40" />
              <mxPoint x="690" y="40" />
            </Array>
          </mxGeometry>
        </mxCell>
        <mxCell id="Qaua3pq4yem5n6teV59A-65" style="edgeStyle=orthogonalEdgeStyle;rounded=0;orthogonalLoop=1;jettySize=auto;html=1;exitX=1;exitY=0.75;exitDx=0;exitDy=0;entryX=0;entryY=0.5;entryDx=0;entryDy=0;" parent="WIyWlLk6GJQsqaUBKTNV-1" source="Qaua3pq4yem5n6teV59A-11" target="Qaua3pq4yem5n6teV59A-16" edge="1">
          <mxGeometry relative="1" as="geometry" />
        </mxCell>
        <mxCell id="Qaua3pq4yem5n6teV59A-67" style="edgeStyle=orthogonalEdgeStyle;rounded=0;orthogonalLoop=1;jettySize=auto;html=1;entryX=0.15;entryY=0.983;entryDx=0;entryDy=0;entryPerimeter=0;" parent="WIyWlLk6GJQsqaUBKTNV-1" source="Qaua3pq4yem5n6teV59A-11" target="Qaua3pq4yem5n6teV59A-15" edge="1">
          <mxGeometry relative="1" as="geometry" />
        </mxCell>
        <mxCell id="Qaua3pq4yem5n6teV59A-11" value="&lt;font style=&quot;font-size: 18px&quot;&gt;village&lt;/font&gt;" style="rounded=1;whiteSpace=wrap;html=1;" parent="WIyWlLk6GJQsqaUBKTNV-1" vertex="1">
          <mxGeometry x="70" y="250" width="120" height="60" as="geometry" />
        </mxCell>
        <mxCell id="Qaua3pq4yem5n6teV59A-52" style="edgeStyle=orthogonalEdgeStyle;rounded=0;orthogonalLoop=1;jettySize=auto;html=1;entryX=1;entryY=0.75;entryDx=0;entryDy=0;" parent="WIyWlLk6GJQsqaUBKTNV-1" source="Qaua3pq4yem5n6teV59A-12" target="Qaua3pq4yem5n6teV59A-10" edge="1">
          <mxGeometry relative="1" as="geometry">
            <Array as="points">
              <mxPoint x="800" y="240" />
              <mxPoint x="800" y="680" />
              <mxPoint x="510" y="680" />
              <mxPoint x="510" y="465" />
            </Array>
          </mxGeometry>
        </mxCell>
        <mxCell id="Qaua3pq4yem5n6teV59A-54" style="edgeStyle=orthogonalEdgeStyle;rounded=0;orthogonalLoop=1;jettySize=auto;html=1;entryX=0.85;entryY=0.017;entryDx=0;entryDy=0;entryPerimeter=0;" parent="WIyWlLk6GJQsqaUBKTNV-1" source="Qaua3pq4yem5n6teV59A-12" target="Qaua3pq4yem5n6teV59A-11" edge="1">
          <mxGeometry relative="1" as="geometry">
            <Array as="points">
              <mxPoint x="680" y="50" />
              <mxPoint x="240" y="50" />
              <mxPoint x="240" y="220" />
              <mxPoint x="172" y="220" />
            </Array>
          </mxGeometry>
        </mxCell>
        <mxCell id="Qaua3pq4yem5n6teV59A-56" style="edgeStyle=orthogonalEdgeStyle;rounded=0;orthogonalLoop=1;jettySize=auto;html=1;exitX=0.75;exitY=0;exitDx=0;exitDy=0;" parent="WIyWlLk6GJQsqaUBKTNV-1" source="Qaua3pq4yem5n6teV59A-12" edge="1">
          <mxGeometry relative="1" as="geometry">
            <mxPoint x="167" y="120" as="targetPoint" />
            <Array as="points">
              <mxPoint x="710" y="10" />
              <mxPoint x="167" y="10" />
            </Array>
          </mxGeometry>
        </mxCell>
        <mxCell id="Qaua3pq4yem5n6teV59A-12" value="&lt;font style=&quot;font-size: 18px&quot;&gt;forest&lt;br&gt;&lt;font color=&quot;#ff0000&quot;&gt;(monster)&lt;/font&gt;&lt;br&gt;&lt;/font&gt;" style="rounded=1;whiteSpace=wrap;html=1;" parent="WIyWlLk6GJQsqaUBKTNV-1" vertex="1">
          <mxGeometry x="620" y="210" width="120" height="60" as="geometry" />
        </mxCell>
        <mxCell id="Qaua3pq4yem5n6teV59A-70" style="edgeStyle=orthogonalEdgeStyle;rounded=0;orthogonalLoop=1;jettySize=auto;html=1;entryX=0;entryY=0.75;entryDx=0;entryDy=0;" parent="WIyWlLk6GJQsqaUBKTNV-1" source="Qaua3pq4yem5n6teV59A-13" target="Qaua3pq4yem5n6teV59A-9" edge="1">
          <mxGeometry relative="1" as="geometry">
            <Array as="points">
              <mxPoint x="-20" y="150" />
              <mxPoint x="-20" y="465" />
            </Array>
          </mxGeometry>
        </mxCell>
        <mxCell id="Qaua3pq4yem5n6teV59A-13" value="&lt;font style=&quot;font-size: 18px&quot;&gt;ruin&lt;br&gt;&lt;font color=&quot;#ff33ff&quot;&gt;(zombies)&lt;/font&gt;&lt;br&gt;&lt;/font&gt;" style="rounded=1;whiteSpace=wrap;html=1;" parent="WIyWlLk6GJQsqaUBKTNV-1" vertex="1">
          <mxGeometry x="70" y="120" width="120" height="60" as="geometry" />
        </mxCell>
        <mxCell id="Qaua3pq4yem5n6teV59A-14" value="&lt;font style=&quot;font-size: 18px&quot;&gt;cellar&lt;/font&gt;" style="rounded=1;whiteSpace=wrap;html=1;" parent="WIyWlLk6GJQsqaUBKTNV-1" vertex="1">
          <mxGeometry x="620" y="555" width="120" height="60" as="geometry" />
        </mxCell>
        <mxCell id="Qaua3pq4yem5n6teV59A-64" style="edgeStyle=orthogonalEdgeStyle;rounded=0;orthogonalLoop=1;jettySize=auto;html=1;entryX=0.5;entryY=0;entryDx=0;entryDy=0;" parent="WIyWlLk6GJQsqaUBKTNV-1" source="Qaua3pq4yem5n6teV59A-15" target="Qaua3pq4yem5n6teV59A-16" edge="1">
          <mxGeometry relative="1" as="geometry" />
        </mxCell>
        <mxCell id="Qaua3pq4yem5n6teV59A-66" style="edgeStyle=orthogonalEdgeStyle;rounded=0;orthogonalLoop=1;jettySize=auto;html=1;exitX=0.25;exitY=1;exitDx=0;exitDy=0;entryX=0.992;entryY=0.617;entryDx=0;entryDy=0;entryPerimeter=0;" parent="WIyWlLk6GJQsqaUBKTNV-1" source="Qaua3pq4yem5n6teV59A-15" target="Qaua3pq4yem5n6teV59A-11" edge="1">
          <mxGeometry relative="1" as="geometry" />
        </mxCell>
        <mxCell id="Qaua3pq4yem5n6teV59A-68" style="edgeStyle=orthogonalEdgeStyle;rounded=0;orthogonalLoop=1;jettySize=auto;html=1;exitX=1;exitY=0.75;exitDx=0;exitDy=0;entryX=0;entryY=0.75;entryDx=0;entryDy=0;" parent="WIyWlLk6GJQsqaUBKTNV-1" source="Qaua3pq4yem5n6teV59A-15" target="Qaua3pq4yem5n6teV59A-12" edge="1">
          <mxGeometry relative="1" as="geometry" />
        </mxCell>
        <mxCell id="Qaua3pq4yem5n6teV59A-15" value="&lt;font style=&quot;font-size: 18px&quot;&gt;castle&lt;/font&gt;" style="rounded=1;whiteSpace=wrap;html=1;" parent="WIyWlLk6GJQsqaUBKTNV-1" vertex="1">
          <mxGeometry x="388" y="120" width="120" height="60" as="geometry" />
        </mxCell>
        <mxCell id="Qaua3pq4yem5n6teV59A-72" style="edgeStyle=orthogonalEdgeStyle;rounded=0;orthogonalLoop=1;jettySize=auto;html=1;entryX=0.333;entryY=0;entryDx=0;entryDy=0;entryPerimeter=0;" parent="WIyWlLk6GJQsqaUBKTNV-1" source="Qaua3pq4yem5n6teV59A-16" target="Qaua3pq4yem5n6teV59A-17" edge="1">
          <mxGeometry relative="1" as="geometry" />
        </mxCell>
        <mxCell id="Qaua3pq4yem5n6teV59A-16" value="&lt;font style=&quot;font-size: 18px&quot;&gt;roof&lt;br&gt;&lt;font color=&quot;#990000&quot;&gt;(gas)&lt;/font&gt;&lt;/font&gt;" style="rounded=1;whiteSpace=wrap;html=1;" parent="WIyWlLk6GJQsqaUBKTNV-1" vertex="1">
          <mxGeometry x="388" y="298" width="120" height="60" as="geometry" />
        </mxCell>
        <mxCell id="Qaua3pq4yem5n6teV59A-34" style="edgeStyle=orthogonalEdgeStyle;rounded=0;orthogonalLoop=1;jettySize=auto;html=1;entryX=0.5;entryY=0;entryDx=0;entryDy=0;" parent="WIyWlLk6GJQsqaUBKTNV-1" source="Qaua3pq4yem5n6teV59A-17" target="Qaua3pq4yem5n6teV59A-14" edge="1">
          <mxGeometry relative="1" as="geometry" />
        </mxCell>
        <mxCell id="Qaua3pq4yem5n6teV59A-37" style="edgeStyle=orthogonalEdgeStyle;rounded=0;orthogonalLoop=1;jettySize=auto;html=1;exitX=0.75;exitY=0;exitDx=0;exitDy=0;entryX=0.75;entryY=1;entryDx=0;entryDy=0;" parent="WIyWlLk6GJQsqaUBKTNV-1" source="Qaua3pq4yem5n6teV59A-17" target="Qaua3pq4yem5n6teV59A-12" edge="1">
          <mxGeometry relative="1" as="geometry" />
        </mxCell>
        <mxCell id="Qaua3pq4yem5n6teV59A-39" style="edgeStyle=orthogonalEdgeStyle;rounded=0;orthogonalLoop=1;jettySize=auto;html=1;exitX=0.25;exitY=0;exitDx=0;exitDy=0;entryX=1.008;entryY=0.867;entryDx=0;entryDy=0;entryPerimeter=0;" parent="WIyWlLk6GJQsqaUBKTNV-1" source="Qaua3pq4yem5n6teV59A-17" target="Qaua3pq4yem5n6teV59A-11" edge="1">
          <mxGeometry relative="1" as="geometry">
            <Array as="points">
              <mxPoint x="650" y="380" />
              <mxPoint x="220" y="380" />
              <mxPoint x="220" y="302" />
            </Array>
          </mxGeometry>
        </mxCell>
        <mxCell id="Qaua3pq4yem5n6teV59A-41" style="edgeStyle=orthogonalEdgeStyle;rounded=0;orthogonalLoop=1;jettySize=auto;html=1;entryX=0.992;entryY=0.4;entryDx=0;entryDy=0;entryPerimeter=0;" parent="WIyWlLk6GJQsqaUBKTNV-1" source="Qaua3pq4yem5n6teV59A-17" target="Qaua3pq4yem5n6teV59A-16" edge="1">
          <mxGeometry relative="1" as="geometry">
            <Array as="points">
              <mxPoint x="680" y="322" />
            </Array>
          </mxGeometry>
        </mxCell>
        <mxCell id="Qaua3pq4yem5n6teV59A-42" value="helicopter" style="edgeLabel;html=1;align=center;verticalAlign=middle;resizable=0;points=[];" parent="Qaua3pq4yem5n6teV59A-41" vertex="1" connectable="0">
          <mxGeometry x="0.6387" y="-4" relative="1" as="geometry">
            <mxPoint x="42" y="22" as="offset" />
          </mxGeometry>
        </mxCell>
        <mxCell id="Qaua3pq4yem5n6teV59A-17" value="&lt;font style=&quot;font-size: 18px&quot;&gt;church&lt;/font&gt;" style="rounded=1;whiteSpace=wrap;html=1;" parent="WIyWlLk6GJQsqaUBKTNV-1" vertex="1">
          <mxGeometry x="620" y="420" width="120" height="60" as="geometry" />
        </mxCell>
        <mxCell id="Qaua3pq4yem5n6teV59A-18" value="&lt;font style=&quot;font-size: 18px&quot;&gt;lab&lt;br&gt;&lt;font color=&quot;#00ff00&quot;&gt;(vaccine)&lt;/font&gt;&lt;/font&gt;" style="rounded=1;whiteSpace=wrap;html=1;" parent="WIyWlLk6GJQsqaUBKTNV-1" vertex="1">
          <mxGeometry x="360" y="555" width="120" height="60" as="geometry" />
        </mxCell>
        <mxCell id="Qaua3pq4yem5n6teV59A-21" value="car" style="text;html=1;align=center;verticalAlign=middle;resizable=0;points=[];autosize=1;" parent="WIyWlLk6GJQsqaUBKTNV-1" vertex="1">
          <mxGeometry x="248" y="474" width="30" height="20" as="geometry" />
        </mxCell>
        <mxCell id="Qaua3pq4yem5n6teV59A-23" value="helicopter" style="text;html=1;align=center;verticalAlign=middle;resizable=0;points=[];autosize=1;" parent="WIyWlLk6GJQsqaUBKTNV-1" vertex="1">
          <mxGeometry x="236" y="431" width="70" height="20" as="geometry" />
        </mxCell>
        <mxCell id="Qaua3pq4yem5n6teV59A-25" value="motorbike,&lt;br&gt;helicopter" style="text;html=1;align=center;verticalAlign=middle;resizable=0;points=[];autosize=1;" parent="WIyWlLk6GJQsqaUBKTNV-1" vertex="1">
          <mxGeometry x="20" y="360" width="70" height="30" as="geometry" />
        </mxCell>
        <mxCell id="Qaua3pq4yem5n6teV59A-27" value="car" style="text;html=1;align=center;verticalAlign=middle;resizable=0;points=[];autosize=1;" parent="WIyWlLk6GJQsqaUBKTNV-1" vertex="1">
          <mxGeometry x="160" y="360" width="30" height="20" as="geometry" />
        </mxCell>
        <mxCell id="Qaua3pq4yem5n6teV59A-31" value="foot" style="text;html=1;align=center;verticalAlign=middle;resizable=0;points=[];autosize=1;" parent="WIyWlLk6GJQsqaUBKTNV-1" vertex="1">
          <mxGeometry x="374" y="508" width="40" height="20" as="geometry" />
        </mxCell>
        <mxCell id="Qaua3pq4yem5n6teV59A-33" value="car, motorbike" style="text;html=1;align=center;verticalAlign=middle;resizable=0;points=[];autosize=1;" parent="WIyWlLk6GJQsqaUBKTNV-1" vertex="1">
          <mxGeometry x="508" y="417" width="90" height="20" as="geometry" />
        </mxCell>
        <mxCell id="Qaua3pq4yem5n6teV59A-36" value="foot" style="text;html=1;align=center;verticalAlign=middle;resizable=0;points=[];autosize=1;" parent="WIyWlLk6GJQsqaUBKTNV-1" vertex="1">
          <mxGeometry x="640" y="512" width="40" height="20" as="geometry" />
        </mxCell>
        <mxCell id="Qaua3pq4yem5n6teV59A-38" value="motorbike" style="text;html=1;align=center;verticalAlign=middle;resizable=0;points=[];autosize=1;" parent="WIyWlLk6GJQsqaUBKTNV-1" vertex="1">
          <mxGeometry x="710" y="358" width="70" height="20" as="geometry" />
        </mxCell>
        <mxCell id="Qaua3pq4yem5n6teV59A-40" value="car" style="text;html=1;align=center;verticalAlign=middle;resizable=0;points=[];autosize=1;" parent="WIyWlLk6GJQsqaUBKTNV-1" vertex="1">
          <mxGeometry x="399" y="360" width="30" height="20" as="geometry" />
        </mxCell>
        <mxCell id="Qaua3pq4yem5n6teV59A-44" value="foot" style="text;html=1;align=center;verticalAlign=middle;resizable=0;points=[];autosize=1;" parent="WIyWlLk6GJQsqaUBKTNV-1" vertex="1">
          <mxGeometry x="90" y="207" width="40" height="20" as="geometry" />
        </mxCell>
        <mxCell id="Qaua3pq4yem5n6teV59A-46" value="motorbike" style="text;html=1;align=center;verticalAlign=middle;resizable=0;points=[];autosize=1;" parent="WIyWlLk6GJQsqaUBKTNV-1" vertex="1">
          <mxGeometry x="344" y="220" width="70" height="20" as="geometry" />
        </mxCell>
        <mxCell id="Qaua3pq4yem5n6teV59A-48" value="tank" style="text;html=1;align=center;verticalAlign=middle;resizable=0;points=[];autosize=1;" parent="WIyWlLk6GJQsqaUBKTNV-1" vertex="1">
          <mxGeometry x="440" y="20" width="40" height="20" as="geometry" />
        </mxCell>
        <mxCell id="Qaua3pq4yem5n6teV59A-51" value="helicopter" style="text;html=1;align=center;verticalAlign=middle;resizable=0;points=[];autosize=1;" parent="WIyWlLk6GJQsqaUBKTNV-1" vertex="1">
          <mxGeometry x="278" y="330" width="70" height="20" as="geometry" />
        </mxCell>
        <mxCell id="Qaua3pq4yem5n6teV59A-53" value="helicopter" style="text;html=1;align=center;verticalAlign=middle;resizable=0;points=[];autosize=1;" parent="WIyWlLk6GJQsqaUBKTNV-1" vertex="1">
          <mxGeometry x="640" y="680" width="70" height="20" as="geometry" />
        </mxCell>
        <mxCell id="Qaua3pq4yem5n6teV59A-55" value="tank, motorbike" style="text;html=1;align=center;verticalAlign=middle;resizable=0;points=[];autosize=1;" parent="WIyWlLk6GJQsqaUBKTNV-1" vertex="1">
          <mxGeometry x="417" y="50" width="100" height="20" as="geometry" />
        </mxCell>
        <mxCell id="Qaua3pq4yem5n6teV59A-57" value="foot" style="text;html=1;align=center;verticalAlign=middle;resizable=0;points=[];autosize=1;" parent="WIyWlLk6GJQsqaUBKTNV-1" vertex="1">
          <mxGeometry x="447" y="-20" width="40" height="20" as="geometry" />
        </mxCell>
        <mxCell id="Qaua3pq4yem5n6teV59A-59" value="motorbike" style="text;html=1;align=center;verticalAlign=middle;resizable=0;points=[];autosize=1;" parent="WIyWlLk6GJQsqaUBKTNV-1" vertex="1">
          <mxGeometry x="306" y="290" width="70" height="20" as="geometry" />
        </mxCell>
        <mxCell id="Qaua3pq4yem5n6teV59A-61" value="foot" style="text;html=1;align=center;verticalAlign=middle;resizable=0;points=[];autosize=1;" parent="WIyWlLk6GJQsqaUBKTNV-1" vertex="1">
          <mxGeometry x="447" y="220" width="40" height="20" as="geometry" />
        </mxCell>
        <mxCell id="Qaua3pq4yem5n6teV59A-69" value="car" style="text;html=1;align=center;verticalAlign=middle;resizable=0;points=[];autosize=1;" parent="WIyWlLk6GJQsqaUBKTNV-1" vertex="1">
          <mxGeometry x="530" y="200" width="30" height="20" as="geometry" />
        </mxCell>
        <mxCell id="Qaua3pq4yem5n6teV59A-71" value="helicopter" style="text;html=1;align=center;verticalAlign=middle;resizable=0;points=[];autosize=1;" parent="WIyWlLk6GJQsqaUBKTNV-1" vertex="1">
          <mxGeometry x="-96" y="293" width="70" height="20" as="geometry" />
        </mxCell>
        <mxCell id="Qaua3pq4yem5n6teV59A-73" value="helicopter" style="edgeLabel;html=1;align=center;verticalAlign=middle;resizable=0;points=[];" parent="WIyWlLk6GJQsqaUBKTNV-1" vertex="1" connectable="0">
          <mxGeometry x="560" y="290" as="geometry">
            <mxPoint x="34" y="22" as="offset" />
          </mxGeometry>
        </mxCell>
      </root>
    </mxGraphModel>
  </diagram>
</mxfile>
